# Blender 4.1.1
# www.blender.org
mtllib railing_door.mtl
o Cube.001
v -0.010000 0.010000 -0.017500
v -0.010000 0.444077 -0.017500
v -0.010000 0.010000 -0.180000
v -0.010000 0.490000 -0.180000
v 0.010000 0.010000 -0.017500
v 0.010000 0.444077 -0.017500
v 0.010000 0.010000 -0.180000
v 0.010000 0.490000 -0.180000
v 0.010000 0.490000 -0.101310
v -0.010000 0.490000 -0.101310
v -0.010000 0.000000 -0.190000
v -0.010000 0.000000 -0.007500
v -0.010000 0.450000 -0.007500
v -0.010000 0.500000 -0.098750
v -0.010000 0.500000 -0.190000
v -0.010000 0.030000 -0.160000
v -0.010000 0.030000 -0.037500
v -0.010000 0.432230 -0.037500
v -0.010000 0.470000 -0.106430
v -0.010000 0.470000 -0.160000
v -0.007500 0.010000 -0.180000
v -0.007500 0.010000 -0.017500
v -0.007500 0.444077 -0.017500
v -0.007500 0.490000 -0.101310
v -0.007500 0.490000 -0.180000
v 0.010000 0.500000 -0.190000
v 0.010000 0.000000 -0.190000
v 0.010000 0.000000 -0.007500
v 0.010000 0.500000 -0.098750
v 0.010000 0.450000 -0.007500
v 0.010000 0.470000 -0.160000
v 0.010000 0.030000 -0.160000
v 0.010000 0.030000 -0.037500
v 0.010000 0.470000 -0.106430
v 0.010000 0.432230 -0.037500
v 0.007500 0.490000 -0.180000
v 0.007500 0.010000 -0.180000
v 0.007500 0.010000 -0.017500
v 0.007500 0.490000 -0.101310
v 0.007500 0.444077 -0.017500
v -0.010000 0.225000 -0.007500
v 0.010000 0.225000 -0.007500
v -0.005000 0.305000 -0.007500
v -0.005000 0.370000 -0.007500
v 0.005000 0.370000 -0.007500
v 0.005000 0.305000 -0.007500
v 0.005000 0.145000 -0.007500
v 0.005000 0.080000 -0.007500
v -0.005000 0.080000 -0.007500
v -0.005000 0.145000 -0.007500
v 0.010000 0.150000 -0.007500
v 0.010000 0.075000 -0.007500
v -0.010000 0.075000 -0.007500
v -0.010000 0.150000 -0.007500
v 0.005000 0.145000 0.007500
v 0.005000 0.080000 0.007500
v -0.005000 0.080000 0.007500
v -0.005000 0.145000 0.007500
v -0.010000 0.300000 -0.007500
v -0.010000 0.375000 -0.007500
v 0.010000 0.375000 -0.007500
v 0.010000 0.300000 -0.007500
v -0.005000 0.305000 0.007500
v -0.005000 0.370000 0.007500
v 0.005000 0.370000 0.007500
v 0.005000 0.305000 0.007500
vn -0.0000 -0.8770 -0.4805
vn -0.0000 -0.0000 -1.0000
vn -0.0000 -0.0000 1.0000
vn -0.0000 -1.0000 -0.0000
vn -0.0000 1.0000 -0.0000
vn -0.0000 0.8770 0.4805
vn -1.0000 -0.0000 -0.0000
vn -0.9923 -0.1240 -0.0000
vn -0.9923 -0.0000 0.1240
vn -0.9923 0.1240 -0.0000
vn -0.9923 -0.0000 -0.1240
vn -0.9923 0.1088 0.0596
vn 1.0000 -0.0000 -0.0000
vn 0.9923 -0.0000 -0.1240
vn 0.9923 -0.1240 -0.0000
vn 0.9923 0.1088 0.0596
vn 0.9923 -0.0000 0.1240
vn 0.9923 0.1240 -0.0000
vt 0.619629 0.013699
vt 0.621554 0.128507
vt 0.375000 0.250000
vt 0.625000 0.250000
vt 0.625000 0.500000
vt 0.375000 0.500000
vt 0.380126 0.513699
vt 0.620294 0.513699
vt 0.458333 0.750000
vt 0.500000 0.750000
vt 0.500000 1.000000
vt 0.458333 1.000000
vt 0.125000 0.500000
vt 0.375000 0.750000
vt 0.125000 0.750000
vt 0.875000 0.500000
vt 0.875000 0.625000
vt 0.625000 0.625000
vt 0.875000 0.750000
vt 0.625000 0.750000
vt 0.380397 0.013699
vt 0.380126 0.236301
vt 0.375000 0.000000
vt 0.416667 0.000000
vt 0.458333 0.000000
vt 0.500000 0.000000
vt 0.541667 0.000000
vt 0.583333 0.000000
vt 0.625000 0.000000
vt 0.620294 0.236301
vt 0.625000 0.125000
vt 0.391073 0.041096
vt 0.609319 0.041096
vt 0.613810 0.135521
vt 0.611241 0.208904
vt 0.390430 0.208904
vt 0.380397 0.736301
vt 0.619629 0.736301
vt 0.621554 0.621493
vt 0.583333 0.750000
vt 0.541667 0.750000
vt 0.416667 0.750000
vt 0.390430 0.541096
vt 0.611241 0.541096
vt 0.613810 0.614479
vt 0.609319 0.708904
vt 0.391073 0.708904
vt 0.583333 1.000000
vt 0.625000 1.000000
vt 0.541667 1.000000
vt 0.580556 0.812500
vt 0.580556 0.937500
vt 0.416667 1.000000
vt 0.375000 1.000000
vt 0.455556 0.812500
vt 0.455556 0.937500
vt 0.419444 0.812500
vt 0.419444 0.937500
vt 0.544444 0.937500
vt 0.544444 0.812500
s 0
f 2/1/1 10/2/1 24/2/1 23/1/1
f 11/3/2 15/4/2 26/5/2 27/6/2
f 7/7/3 8/8/3 36/8/3 37/7/3
f 51/9/3 42/10/3 41/11/3 54/12/3
f 11/13/4 27/6/4 28/14/4 12/15/4
f 26/5/5 15/16/5 14/17/5 29/18/5
f 29/18/6 14/17/6 13/19/6 30/20/6
f 1/21/7 3/22/7 11/3/7 12/23/7
f 2/1/7 1/21/7 12/23/7 53/24/7 54/25/7 41/26/7 59/27/7 60/28/7 13/29/7
f 4/30/7 10/2/7 14/31/7 15/4/7
f 3/22/7 4/30/7 15/4/7 11/3/7
f 10/2/7 2/1/7 13/29/7 14/31/7
f 17/32/7 18/33/7 19/34/7 20/35/7 16/36/7
f 10/2/4 4/30/4 25/30/4 24/2/4
f 3/22/5 1/21/5 22/21/5 21/22/5
f 4/30/3 3/22/3 21/22/3 25/30/3
f 1/21/2 2/1/2 23/1/2 22/21/2
f 17/32/8 16/36/8 21/22/8 22/21/8
f 18/33/9 17/32/9 22/21/9 23/1/9
f 20/35/10 19/34/10 24/2/10 25/30/10
f 16/36/11 20/35/11 25/30/11 21/22/11
f 19/34/12 18/33/12 23/1/12 24/2/12
f 8/8/13 7/7/13 27/6/13 26/5/13
f 7/7/13 5/37/13 28/14/13 27/6/13
f 6/38/13 9/39/13 29/18/13 30/20/13
f 5/37/13 6/38/13 30/20/13 61/40/13 62/41/13 42/10/13 51/9/13 52/42/13 28/14/13
f 9/39/13 8/8/13 26/5/13 29/18/13
f 32/43/13 31/44/13 34/45/13 35/46/13 33/47/13
f 6/38/2 5/37/2 38/37/2 40/38/2
f 5/37/5 7/7/5 37/7/5 38/37/5
f 8/8/4 9/39/4 39/39/4 36/8/4
f 9/39/1 6/38/1 40/38/1 39/39/1
f 31/44/14 32/43/14 37/7/14 36/8/14
f 32/43/15 33/47/15 38/37/15 37/7/15
f 35/46/16 34/45/16 39/39/16 40/38/16
f 33/47/17 35/46/17 40/38/17 38/37/17
f 34/45/18 31/44/18 36/8/18 39/39/18
f 60/48/3 61/40/3 30/20/3 13/49/3
f 41/11/3 42/10/3 62/41/3 59/50/3
f 45/51/5 44/52/5 64/52/5 65/51/5
f 28/14/3 52/42/3 53/53/3 12/54/3
f 47/55/5 50/56/5 58/56/5 55/55/5
f 47/55/3 48/57/3 52/42/3 51/9/3
f 49/58/3 50/56/3 54/12/3 53/53/3
f 48/57/3 49/58/3 53/53/3 52/42/3
f 50/56/3 47/55/3 51/9/3 54/12/3
f 56/57/3 55/55/3 58/56/3 57/58/3
f 50/56/7 49/58/7 57/58/7 58/56/7
f 49/58/4 48/57/4 56/57/4 57/58/4
f 48/57/13 47/55/13 55/55/13 56/57/13
f 43/59/3 44/52/3 60/48/3 59/50/3
f 45/51/3 46/60/3 62/41/3 61/40/3
f 46/60/3 43/59/3 59/50/3 62/41/3
f 44/52/3 45/51/3 61/40/3 60/48/3
f 63/59/3 66/60/3 65/51/3 64/52/3
f 46/60/13 45/51/13 65/51/13 66/60/13
f 43/59/4 46/60/4 66/60/4 63/59/4
f 44/52/7 43/59/7 63/59/7 64/52/7
