# Blender 4.1.1
# www.blender.org
mtllib Wall_with_door.mtl
o Wall_with_door
v -1.500000 3.000000 1.500000
v -1.500000 0.000000 1.500000
v -1.500000 3.000000 -1.500000
v -1.500000 0.000000 -1.500000
v -1.500000 1.000000 0.800000
v -1.500000 1.000000 1.300000
v -1.500000 0.000000 1.300000
v -1.500000 0.000000 0.800000
vn 1.0000 -0.0000 -0.0000
vt 1.000000 0.233333
vt 1.000000 1.000000
vt 0.000000 1.000000
vt 0.000000 0.000000
vt 1.000000 0.000000
vt 1.000000 0.066667
vt 0.666667 0.066667
vt 0.666667 0.233333
s 0
f 8/1/1 4/2/1 3/3/1 1/4/1 2/5/1 7/6/1 6/7/1 5/8/1
